<svg width="51" height="70" viewBox="0 0 51 70" fill="none" xmlns="http://www.w3.org/2000/svg">
<path fill-rule="evenodd" clip-rule="evenodd" d="M12.7532 3.27872C20.643 -1.16455 30.3408 -1.08689 38.1566 3.48215C45.8955 8.14425 50.5991 16.4647 50.5552 25.4152C50.3751 34.307 45.3316 42.6653 39.0272 49.1266C35.3885 52.8727 31.318 56.1852 26.8988 58.9965C26.4436 59.2516 25.9451 59.4223 25.4277 59.5004C24.9298 59.4798 24.4449 59.3372 24.0167 59.0854C17.27 54.8613 11.351 49.4694 6.54457 43.1691C2.52269 37.91 0.237737 31.5562 4.20192e-06 24.9706C-0.00522111 16.003 4.86335 7.72199 12.7532 3.27872ZM17.3137 28.6823C18.6409 31.8535 21.7735 33.9221 25.249 33.9221C27.5258 33.9379 29.7144 33.054 31.3272 31.4673C32.9401 29.8805 33.843 27.7228 33.8349 25.4749C33.8471 22.0437 31.7629 18.9436 28.5555 17.6222C25.3481 16.3008 21.6502 17.0187 19.1884 19.4407C16.7266 21.8628 15.9865 25.5111 17.3137 28.6823Z" fill="#B72026"/>
<ellipse opacity="0.4" cx="25.2761" cy="66.5" rx="18.0557" ry="3.50002" fill="#B72026"/>
</svg>
